<?xml version="1.0" encoding="UTF-8" standalone="no" ?>
<!DOCTYPE svg PUBLIC "-//W3C//DTD SVG 1.1//EN" "http://www.w3.org/Graphics/SVG/1.1/DTD/svg11.dtd">
<svg xmlns="http://www.w3.org/2000/svg" xmlns:xlink="http://www.w3.org/1999/xlink" version="1.1" width="400" height="400" viewBox="0 0 400 400" xml:space="preserve">
<desc>Created with Fabric.js 3.6.2</desc>
<defs>
</defs>
<g transform="matrix(6.25 0 0 6.25 200 200.01)" id="locate_location_map_pin"  >
<path style="stroke: none; stroke-width: 1; stroke-dasharray: none; stroke-linecap: butt; stroke-dashoffset: 0; stroke-linejoin: miter; stroke-miterlimit: 4; fill: rgb(0,0,0); fill-rule: nonzero; opacity: 1;"  transform=" translate(-16, -16)" d="M 23.78 6.15 A 11 11 0 0 0 8.22 21.71 l 4.1 4.1 a 1 1 0 1 0 1.42 -1.42 l -4.1 -4.1 a 9 9 0 1 1 12.72 0 l -7.07 7.07 a 1 1 0 0 0 0 1.42 a 1 1 0 0 0 1.42 0 l 7.07 -7.07 A 11 11 0 0 0 23.78 6.15 Z" stroke-linecap="round" />
</g>
<g transform="matrix(6.25 0 0 6.25 200 187.5)" id="locate_location_map_pin"  >
<path style="stroke: none; stroke-width: 1; stroke-dasharray: none; stroke-linecap: butt; stroke-dashoffset: 0; stroke-linejoin: miter; stroke-miterlimit: 4; fill: rgb(0,0,0); fill-rule: nonzero; opacity: 1;"  transform=" translate(-16, -14)" d="M 21 14 a 5 5 0 1 0 -5 5 A 5 5 0 0 0 21 14 Z m -8 0 a 3 3 0 1 1 3 3 A 3 3 0 0 1 13 14 Z" stroke-linecap="round" />
</g>
</svg>