<?xml version="1.0" encoding="UTF-8" standalone="no" ?>
<!DOCTYPE svg PUBLIC "-//W3C//DTD SVG 1.1//EN" "http://www.w3.org/Graphics/SVG/1.1/DTD/svg11.dtd">
<svg xmlns="http://www.w3.org/2000/svg" xmlns:xlink="http://www.w3.org/1999/xlink" version="1.1" width="400" height="400" viewBox="0 0 400 400" xml:space="preserve">
<desc>Created with Fabric.js 3.6.2</desc>
<defs>
</defs>
<g transform="matrix(7.38 0 0 7.38 200 200)" id="telegram_social_media_network_chat"  >
<path style="stroke: none; stroke-width: 1; stroke-dasharray: none; stroke-linecap: butt; stroke-dashoffset: 0; stroke-linejoin: miter; stroke-miterlimit: 4; fill: rgb(0,0,0); fill-rule: nonzero; opacity: 1;"  transform=" translate(-15.83, -15.65)" d="M 28.59 4.29 a 2.23 2.23 0 0 0 -2.27 -0.36 L 3.41 13.1 a 1.83 1.83 0 0 0 0 3.38 l 1.48 0.61 a 1 1 0 0 0 1.31 -0.53 a 1 1 0 0 0 -0.54 -1.31 L 4.56 14.8 l 22.51 -9 a 0.22 0.22 0 0 1 0.23 0 a 0.24 0.24 0 0 1 0.08 0.23 L 23.27 25.21 a 0.4 0.4 0 0 1 -0.26 0.3 a 0.39 0.39 0 0 1 -0.39 -0.06 l -8 -6.24 l 7.83 -7.91 a 1 1 0 0 0 -1.22 -1.56 L 9.75 16.54 a 1 1 0 1 0 1 1.72 l 4.83 -2.85 L 13.23 17.8 a 2 2 0 0 0 0.2 3.08 l 8 6.15 a 2.4 2.4 0 0 0 1.47 0.5 a 2.47 2.47 0 0 0 0.83 -0.15 a 2.37 2.37 0 0 0 1.52 -1.75 L 29.33 6.47 A 2.23 2.23 0 0 0 28.59 4.29 Z" stroke-linecap="round" />
</g>
</svg>